# xmcd
#
# Track frame offsets:
#	150
#	9317
#	19891
#	30700
#	45832
#	58076
#	68717
#	83499
#	94135
#	105771
#	116123
#	129991
#	142889
#	153087
#	162988
#	173864
#	185339
#	203308
#	219470
#	235262
#
# Disc length: 3248 seconds
#
# Revision: 4
# Processed by: cddbd v1.5.2PL0 Copyright (c) Steve Scherf et al.
# Submitted via: audiograbber 1.83.01
#
DISCID=ef0cae14
DTITLE=Various Artist - 100 Country Greats (Disc:2)
DYEAR=2006
DGENRE=Country
TTITLE0=Frankie Laine - Rawhide
TTITLE1=Waylon Jennings - Burning Memories
TTITLE2=Lynn Anderson - Heaven's just A Sin away
TTITLE3=Kenny Rogers - Conditions (Just Dropped In)
TTITLE4=Willie Nelson - Following Me Around
TTITLE5=Patsy Cline - Honky Tonk Merry Go Round
TTITLE6=Slim Whitman - Mockingbird Hill
TTITLE7=Merle Travis - Divorce Me C. O. D.
TTITLE8=Barbara Fairchild - Cheatin' Is
TTITLE9=Waylon Jennings - White Lightning
TTITLE10=Lynn Anderson - Two Doors down
TTITLE11=Billie Jo Spears - Dallas
TTITLE12=Patsy Cline - Three Cigarettes In An Ashtray
TTITLE13=Willie Nelson - If I Had Only Know
TTITLE14=Hank Williams - Why Don't You Love Me
TTITLE15=Frankie Laine - Mule Train
TTITLE16=Kenny Rogers - Somehting's Burning
TTITLE17=Lynn Anderson - Devil Went Down To Georgia
TTITLE18=Slim Whitman - Down In The Valley
TTITLE19=Tex Ritter - There's A New Moon Over My Shoulder
EXTD=
EXTT0=
EXTT1=
EXTT2=
EXTT3=
EXTT4=
EXTT5=
EXTT6=
EXTT7=
EXTT8=
EXTT9=
EXTT10=
EXTT11=
EXTT12=
EXTT13=
EXTT14=
EXTT15=
EXTT16=
EXTT17=
EXTT18=
EXTT19=
PLAYORDER=
